<svg width="26" height="22" viewBox="0 0 26 22" fill="none" xmlns="http://www.w3.org/2000/svg">
<path d="M18.6357 21.1189V18.9235C18.6357 17.759 18.1731 16.6422 17.3497 15.8188C16.5262 14.9953 15.4094 14.5327 14.2449 14.5327H5.46331C4.2988 14.5327 3.18198 14.9953 2.35855 15.8188C1.53511 16.6422 1.07251 17.759 1.07251 18.9235V21.1189" stroke="#B4B4B4" stroke-width="1.40066" stroke-linecap="round" stroke-linejoin="round"/>
<path d="M9.85418 10.142C12.2792 10.142 14.245 8.17613 14.245 5.75115C14.245 3.32618 12.2792 1.36035 9.85418 1.36035C7.42921 1.36035 5.46338 3.32618 5.46338 5.75115C5.46338 8.17613 7.42921 10.142 9.85418 10.142Z" stroke="#B4B4B4" stroke-width="1.40066" stroke-linecap="round" stroke-linejoin="round"/>
<path d="M25.2221 21.1193V18.9239C25.2213 17.951 24.8975 17.0059 24.3015 16.2371C23.7054 15.4682 22.8709 14.919 21.929 14.6758" stroke="#B4B4B4" stroke-width="1.40066" stroke-linecap="round" stroke-linejoin="round"/>
<path d="M17.5378 1.50293C18.4823 1.74475 19.3195 2.29404 19.9173 3.0642C20.5151 3.83436 20.8396 4.78157 20.8396 5.75652C20.8396 6.73146 20.5151 7.67868 19.9173 8.44884C19.3195 9.21899 18.4823 9.76828 17.5378 10.0101" stroke="#B4B4B4" stroke-width="1.40066" stroke-linecap="round" stroke-linejoin="round"/>
</svg>
