<svg width="23" height="22" viewBox="0 0 23 22" fill="none" xmlns="http://www.w3.org/2000/svg">
<path d="M20.5462 1.36035L18.4858 3.4207M18.4858 3.4207L21.5764 6.51123L17.9707 10.1168L14.8802 7.02632M18.4858 3.4207L14.8802 7.02632M10.6462 11.2603C11.1781 11.7852 11.601 12.4101 11.8904 13.099C12.1798 13.7879 12.3301 14.5273 12.3326 15.2746C12.3351 16.0218 12.1898 16.7622 11.905 17.453C11.6202 18.1439 11.2015 18.7716 10.6731 19.3C10.1447 19.8284 9.51703 20.247 8.82617 20.5318C8.13532 20.8166 7.39495 20.962 6.64769 20.9595C5.90044 20.957 5.16105 20.8067 4.47212 20.5173C3.78319 20.2278 3.15831 19.805 2.63347 19.2731C1.60137 18.2044 1.03027 16.7732 1.04318 15.2876C1.05609 13.802 1.65198 12.3809 2.70249 11.3304C3.75301 10.2799 5.17411 9.68399 6.6597 9.67108C8.1453 9.65817 9.57654 10.2293 10.6452 11.2614L10.6462 11.2603ZM10.6462 11.2603L14.8802 7.02632" stroke="#B4B4B4" stroke-width="1.40066" stroke-linecap="round" stroke-linejoin="round"/>
</svg>
