<svg width="23" height="21" viewBox="0 0 23 21" fill="none" xmlns="http://www.w3.org/2000/svg">
<path d="M1.58716 0.888184H7.76821C8.86109 0.888184 9.90921 1.32233 10.682 2.09511C11.4548 2.86789 11.8889 3.91601 11.8889 5.00889V19.4314C11.8889 18.6117 11.5633 17.8256 10.9837 17.246C10.4041 16.6664 9.61805 16.3408 8.79839 16.3408H1.58716V0.888184Z" stroke="#B4B4B4" stroke-width="1.40066" stroke-linecap="round" stroke-linejoin="round"/>
<path d="M22.1907 0.888184H16.0096C14.9167 0.888184 13.8686 1.32233 13.0958 2.09511C12.3231 2.86789 11.8889 3.91601 11.8889 5.00889V19.4314C11.8889 18.6117 12.2145 17.8256 12.7941 17.246C13.3737 16.6664 14.1598 16.3408 14.9794 16.3408H22.1907V0.888184Z" stroke="#B4B4B4" stroke-width="1.40066" stroke-linecap="round" stroke-linejoin="round"/>
</svg>
